<svg width="10" height="10" viewBox="0 0 10 10" fill="none" xmlns="http://www.w3.org/2000/svg">
<g opacity="0.3">
<circle cx="5" cy="5" r="4.5" stroke="black"/>
<path d="M5.18066 3.75684V7H4.49219V3.75684H5.18066ZM4.84082 2.51465C4.94629 2.51465 5.03711 2.54297 5.11328 2.59961C5.19141 2.65625 5.23047 2.75391 5.23047 2.89258C5.23047 3.0293 5.19141 3.12695 5.11328 3.18555C5.03711 3.24219 4.94629 3.27051 4.84082 3.27051C4.73145 3.27051 4.63867 3.24219 4.5625 3.18555C4.48828 3.12695 4.45117 3.0293 4.45117 2.89258C4.45117 2.75391 4.48828 2.65625 4.5625 2.59961C4.63867 2.54297 4.73145 2.51465 4.84082 2.51465Z" fill="black"/>
</g>
</svg>
